<svg width="94" height="95" xmlns="http://www.w3.org/2000/svg" xmlns:xlink="http://www.w3.org/1999/xlink" xml:space="preserve" overflow="hidden"><g transform="translate(-926 -397)"><path d="M54.9313 36.8167 56.7917 30.55C56.9875 29.8646 56.7917 29.0813 56.2042 28.4938L52.6792 25.4583C20.5625 38.1875 6.16875 60.7083 6.16875 60.7083 4.79792 62.6667 5.77708 65.2125 8.12708 64.625L12.8271 62.4708C15.1771 61.8833 15.9604 63.0583 14.7854 65.1146L9.10625 72.4583C7.83333 74.5146 9.20417 76.8646 11.5542 76.375L15.4708 75.6896C16.5479 75.3958 17.625 75.6896 18.4083 76.4729 19.1917 77.1583 19.5833 78.2354 19.3875 79.3125L17.8208 85.9708C17.625 88.3208 20.4646 89.0063 21.7375 86.95 21.7375 86.95 37.6 54.8333 55.1271 41.3208 54.6375 39.8521 54.5396 38.2854 54.9313 36.8167Z" stroke="#FFFFFF" stroke-width="0.979167" fill="#002060" transform="matrix(1 0 0 1.01064 926 397)"/><path d="M87.6354 21.4438C88.4188 20.7583 88.7125 19.6813 88.3208 18.8 87.9292 17.8208 87.0479 17.2333 86.0688 17.2333L78.0396 17.2333C76.9625 17.2333 76.0812 16.5479 75.7875 15.5688L73.1437 7.6375C72.85 6.65833 71.8708 5.97292 70.8917 5.97292 69.8146 5.97292 68.9333 6.65833 68.6396 7.6375L65.9958 15.5688C65.7021 16.5479 64.7229 17.2333 63.7438 17.2333L55.7146 17.2333C54.7354 17.2333 53.8542 17.9187 53.4625 18.8 53.0708 19.7792 53.3646 20.8562 54.1479 21.4438L56.9875 23.9896 60.6104 27.1229C61.0021 27.4167 61.1979 27.8083 61.3938 28.2979 61.4917 28.7875 61.4917 29.1792 61.3938 29.6688L58.75 37.9917C58.4563 38.9708 58.75 40.0479 59.6313 40.6354 60.4146 41.2229 61.5896 41.2229 62.4708 40.7333L69.5208 35.7396C70.3042 35.1521 71.4792 35.1521 72.2625 35.7396L79.3125 40.7333C80.1938 41.3208 81.2708 41.3208 82.1521 40.6354 82.9354 40.0479 83.3271 38.9708 83.0333 37.9917L80.5854 29.6688C80.2917 28.7875 80.5854 27.7104 81.2708 27.1229L87.6354 21.4438Z" stroke="#FFFFFF" stroke-width="0.979167" fill="#002060" transform="matrix(1 0 0 1.01064 926 397)"/></g></svg>