<svg width="95" height="95" xmlns="http://www.w3.org/2000/svg" xmlns:xlink="http://www.w3.org/1999/xlink" xml:space="preserve" overflow="hidden"><g transform="translate(-72 -397)"><path d="M98.0161 446.479C97.4036 446.478 96.8263 446.193 96.4526 445.707 95.7828 444.843 95.94 443.6 96.8038 442.93 96.8055 442.929 96.8072 442.928 96.8089 442.927 100.61 439.963 105.089 437.991 109.842 437.187 110.935 437.015 111.96 437.761 112.133 438.854 112.305 439.948 111.558 440.973 110.465 441.145 106.366 441.837 102.502 443.537 99.2234 446.093 98.8742 446.351 98.45 446.486 98.0161 446.479Z" stroke="#FFFFFF" stroke-width="0.989583" fill="#FF38B2"/><path d="M87.6354 464.935 87.5365 464.935C86.4468 464.882 85.6059 463.956 85.6562 462.867 85.8583 459.197 86.8723 455.618 88.625 452.387 89.1442 451.422 90.3471 451.061 91.3117 451.58 92.2764 452.1 92.6375 453.303 92.1182 454.267 90.6248 456.97 89.7526 459.972 89.5651 463.055 89.5135 464.09 88.6718 464.91 87.6354 464.935Z" stroke="#FFFFFF" stroke-width="0.989583" fill="#FF38B2"/><path d="M77.1557 439.651C76.5328 439.651 75.9462 439.358 75.5724 438.859 74.9144 437.988 75.0871 436.747 75.9583 436.089 81.0052 432.308 88.7536 430.151 97.2245 430.151 100.688 430.137 104.142 430.525 107.516 431.309 108.6 431.448 109.367 432.439 109.228 433.523 109.089 434.608 108.098 435.374 107.013 435.235 106.885 435.219 106.758 435.19 106.635 435.148 103.555 434.441 100.405 434.089 97.2443 434.099 89.7234 434.099 82.6677 436.029 78.3531 439.265 78.0066 439.521 77.5862 439.656 77.1557 439.651Z" stroke="#FFFFFF" stroke-width="0.989583" fill="#FF38B2"/><path d="M115.245 432.783C114.522 432.774 113.853 432.402 113.464 431.794 111.216 428.485 108.418 425.586 105.191 423.224 99.837 419.266 93.7906 416.841 89.0307 416.831 87.8557 416.831 86.9031 415.879 86.9031 414.704 86.9031 413.529 87.8557 412.576 89.0307 412.576L89.0307 412.576C94.7505 412.576 101.569 415.218 107.724 419.81 111.355 422.47 114.499 425.737 117.016 429.468 117.656 430.461 117.37 431.783 116.377 432.423 116.036 432.642 115.64 432.761 115.235 432.764Z" stroke="#FFFFFF" stroke-width="0.989583" fill="#FF38B2"/><path d="M152.384 456.068C151.562 456.068 150.825 455.56 150.533 454.792 148.772 450.141 144.358 445.727 138.658 442.986 136.462 441.906 134.133 441.121 131.731 440.651 130.657 440.446 129.953 439.409 130.158 438.335 130.363 437.261 131.4 436.557 132.473 436.761 135.217 437.3 137.879 438.194 140.39 439.423 147.07 442.649 152.097 447.736 154.234 453.406 154.622 454.428 154.109 455.571 153.087 455.959 153.087 455.959 153.087 455.959 153.086 455.959 152.861 456.039 152.623 456.076 152.384 456.068Z" stroke="#FFFFFF" stroke-width="0.989583" fill="#FF38B2"/><path d="M134.057 458.354 134.057 458.354C132.964 458.354 132.078 457.468 132.078 456.375 131.944 453.268 130.664 450.321 128.485 448.102 127.591 447.099 126.566 446.22 125.438 445.49 124.496 444.935 124.181 443.722 124.736 442.78 125.29 441.838 126.503 441.524 127.445 442.078 127.486 442.102 127.526 442.128 127.565 442.155 128.973 443.063 130.254 444.155 131.375 445.401 134.257 448.357 135.912 452.296 136.006 456.424 135.98 457.487 135.119 458.339 134.057 458.354Z" stroke="#FFFFFF" stroke-width="0.989583" fill="#FF38B2"/><path d="M126.279 435.455C125.186 435.46 124.296 434.578 124.291 433.485 124.288 432.747 124.695 432.068 125.348 431.724 127.909 430.386 130.634 429.388 133.453 428.756 134.522 428.51 135.587 429.177 135.833 430.245 136.079 431.314 135.412 432.379 134.344 432.625 131.864 433.176 129.466 434.044 127.209 435.208 126.924 435.366 126.604 435.451 126.279 435.455Z" stroke="#FFFFFF" stroke-width="0.989583" fill="#FF38B2"/><path d="M161.359 436.148C160.96 436.148 160.57 436.027 160.241 435.802 157.173 433.694 151.988 432.19 146.387 431.774 145.294 431.692 144.474 430.739 144.556 429.646 144.638 428.553 145.591 427.734 146.684 427.816 153.067 428.291 158.836 430.003 162.517 432.526 163.419 433.144 163.649 434.376 163.031 435.277 162.663 435.816 162.052 436.138 161.399 436.138Z" stroke="#FFFFFF" stroke-width="0.989583" fill="#FF38B2"/><path d="M122.617 430.309C121.524 430.309 120.638 429.423 120.638 428.33 120.638 428.039 120.703 427.752 120.826 427.489 122.308 424.346 124.23 421.43 126.536 418.83 131.415 413.249 137.421 409.469 142.973 408.449 144.056 408.304 145.052 409.065 145.198 410.148 145.333 411.159 144.678 412.107 143.685 412.339 139.054 413.19 133.79 416.594 129.515 421.443 127.473 423.766 125.767 426.364 124.448 429.161 124.119 429.873 123.401 430.323 122.617 430.309Z" stroke="#FFFFFF" stroke-width="0.989583" fill="#FF38B2"/><path d="M112.276 480.402C111.283 480.412 110.436 479.684 110.297 478.7 109.672 473.492 109.695 468.227 110.366 463.025 110.948 457.417 112.31 451.918 114.414 446.687 114.851 445.684 116.018 445.226 117.021 445.663 118.024 446.1 118.483 447.267 118.045 448.27 116.095 453.144 114.836 458.267 114.305 463.49 113.669 468.353 113.646 473.277 114.235 478.146 114.389 479.221 113.647 480.219 112.573 480.382 112.475 480.4 112.375 480.407 112.276 480.402Z" stroke="#FFFFFF" stroke-width="0.989583" fill="#FF38B2"/><path d="M104.448 456.761C104.311 456.78 104.171 456.78 104.033 456.761 102.963 456.535 102.279 455.486 102.505 454.416 102.506 454.409 102.507 454.403 102.509 454.396 103.156 451.704 104.337 449.171 105.982 446.944 106.591 446.114 107.252 445.324 107.961 444.579 108.71 443.781 109.964 443.741 110.762 444.49 111.56 445.239 111.6 446.493 110.851 447.291 110.271 447.918 109.729 448.578 109.228 449.27 107.907 451.043 106.952 453.061 106.418 455.207 106.215 456.128 105.391 456.778 104.448 456.761Z" stroke="#FFFFFF" stroke-width="0.989583" fill="#FF38B2"/><path d="M116.284 418.326C115.316 418.341 114.479 417.655 114.305 416.703 113.927 414.342 113.235 412.042 112.246 409.865 111.744 408.892 112.125 407.696 113.097 407.193 114.07 406.69 115.266 407.071 115.769 408.044 116.948 410.558 117.777 413.221 118.233 415.96 118.432 417.034 117.723 418.066 116.65 418.266 116.531 418.301 116.408 418.321 116.284 418.326Z" stroke="#FFFFFF" stroke-width="0.989583" fill="#FF38B2"/><path d="M128.288 472.208C127.284 472.216 126.434 471.472 126.308 470.477 125.546 463.872 124.073 457.369 121.915 451.081 121.551 450.048 122.094 448.916 123.127 448.552 124.16 448.189 125.292 448.732 125.655 449.765 127.902 456.324 129.438 463.105 130.237 469.992 130.377 471.076 129.612 472.068 128.528 472.208 128.527 472.208 128.526 472.208 128.525 472.208Z" stroke="#FFFFFF" stroke-width="0.989583" fill="#FF38B2"/><path d="M82.8854 445.49C82.8854 446.583 81.9993 447.469 80.9062 447.469 79.8132 447.469 78.9271 446.583 78.9271 445.49 78.9271 444.397 79.8132 443.51 80.9062 443.51 81.9993 443.51 82.8854 444.397 82.8854 445.49Z" stroke="#FFFFFF" stroke-width="0.989583" fill="#FF38B2"/><path d="M103.667 462.312C103.667 463.406 102.781 464.292 101.688 464.292 100.594 464.292 99.7083 463.406 99.7083 462.312 99.7083 461.219 100.594 460.333 101.688 460.333 102.781 460.333 103.667 461.219 103.667 462.312Z" stroke="#FFFFFF" stroke-width="0.989583" fill="#FF38B2"/><path d="M144.24 457.365C144.24 458.458 143.353 459.344 142.26 459.344 141.167 459.344 140.281 458.458 140.281 457.365 140.281 456.272 141.167 455.385 142.26 455.385 143.353 455.385 144.24 456.272 144.24 457.365Z" stroke="#FFFFFF" stroke-width="0.989583" fill="#FF38B2"/><path d="M131.375 480.125C131.375 481.218 130.489 482.104 129.396 482.104 128.303 482.104 127.417 481.218 127.417 480.125 127.417 479.032 128.303 478.146 129.396 478.146 130.489 478.146 131.375 479.032 131.375 480.125Z" stroke="#FFFFFF" stroke-width="0.989583" fill="#FF38B2"/><path d="M127.417 411.844C127.417 412.937 126.531 413.823 125.438 413.823 124.344 413.823 123.458 412.937 123.458 411.844 123.458 410.751 124.344 409.865 125.438 409.865 126.531 409.865 127.417 410.751 127.417 411.844Z" stroke="#FFFFFF" stroke-width="0.989583" fill="#FF38B2"/><path d="M104.656 408.875C104.656 409.968 103.77 410.854 102.677 410.854 101.584 410.854 100.698 409.968 100.698 408.875 100.698 407.782 101.584 406.896 102.677 406.896 103.77 406.896 104.656 407.782 104.656 408.875Z" stroke="#FFFFFF" stroke-width="0.989583" fill="#FF38B2"/><path d="M142.26 429.656C142.26 430.749 141.374 431.635 140.281 431.635 139.188 431.635 138.302 430.749 138.302 429.656 138.302 428.563 139.188 427.677 140.281 427.677 141.374 427.677 142.26 428.563 142.26 429.656Z" stroke="#FFFFFF" stroke-width="0.989583" fill="#FF38B2"/><path d="M95.75 448.458C95.75 449.551 94.8639 450.438 93.7708 450.438 92.6778 450.438 91.7917 449.551 91.7917 448.458 91.7917 447.365 92.6778 446.479 93.7708 446.479 94.8639 446.479 95.75 447.365 95.75 448.458Z" stroke="#FFFFFF" stroke-width="0.989583" fill="#FF38B2"/><path d="M119.5 422.69C119.5 423.783 118.614 424.669 117.521 424.669 116.428 424.669 115.542 423.783 115.542 422.69 115.542 421.597 116.428 420.71 117.521 420.71 118.614 420.71 119.5 421.597 119.5 422.69Z" stroke="#FFFFFF" stroke-width="0.989583" fill="#FF38B2"/><path d="M91.5542 474.623C91.7565 474.434 91.8367 474.148 91.762 473.881 91.6614 473.62 91.4177 473.442 91.1385 473.426L88.8724 473.426C88.5886 473.423 88.3379 473.24 88.249 472.97L87.5068 470.734C87.4054 470.449 87.1453 470.251 86.8438 470.229 86.5564 470.249 86.3024 470.423 86.1807 470.684L85.4385 472.911C85.3676 473.193 85.1054 473.384 84.8151 473.366L82.549 473.366C82.262 473.359 82.0062 473.546 81.9255 473.821 81.8435 474.088 81.9247 474.378 82.1333 474.564L82.9151 475.266 83.875 476.167C83.9627 476.265 84.03 476.379 84.0729 476.503 84.1218 476.62 84.1218 476.752 84.0729 476.869L83.3703 479.224C83.2775 479.502 83.3832 479.806 83.6276 479.967 83.8614 480.134 84.1755 480.134 84.4094 479.967L86.3885 478.561C86.6289 478.404 86.9398 478.404 87.1802 478.561L89.1594 479.967C89.3932 480.134 89.7073 480.134 89.9411 479.967 90.179 479.802 90.2798 479.499 90.1885 479.224L89.4859 476.869C89.405 476.615 89.4872 476.336 89.6937 476.167L91.5146 474.603Z" stroke="#FFFFFF" stroke-width="0.989583" fill="#FF38B2"/><path d="M83.6375 421.185C83.8399 420.996 83.92 420.71 83.8453 420.443 83.7448 420.182 83.501 420.004 83.2219 419.988L80.9557 419.988C80.6719 419.985 80.4212 419.802 80.3323 419.533L79.5901 417.296C79.4888 417.011 79.2286 416.813 78.9271 416.792 78.6397 416.811 78.3858 416.986 78.2641 417.247L77.5219 419.473C77.4509 419.756 77.1888 419.947 76.8984 419.929L74.6323 419.929C74.3453 419.922 74.0895 420.108 74.0089 420.384 73.9268 420.651 74.008 420.941 74.2167 421.126L74.9688 421.839 75.9583 422.729C76.046 422.827 76.1133 422.941 76.1562 423.066 76.2052 423.183 76.2052 423.315 76.1562 423.432L75.4536 425.787C75.3609 426.064 75.4665 426.369 75.7109 426.529 75.9448 426.696 76.2588 426.696 76.4927 426.529L78.4719 425.124C78.7123 424.967 79.0231 424.967 79.2635 425.124L81.2427 426.529C81.4766 426.696 81.7906 426.696 82.0245 426.529 82.2624 426.364 82.3631 426.062 82.2719 425.787L81.5693 423.432C81.497 423.169 81.5956 422.889 81.8167 422.729L83.6375 421.166Z" stroke="#FFFFFF" stroke-width="0.989583" fill="#FF38B2"/><path d="M151.919 466.607C152.121 466.418 152.201 466.132 152.127 465.865 152.026 465.604 151.782 465.426 151.503 465.41L149.237 465.41C148.953 465.407 148.703 465.224 148.614 464.955L147.871 462.718C147.767 462.437 147.507 462.244 147.208 462.223 146.921 462.243 146.667 462.418 146.545 462.679L145.803 464.915C145.725 465.191 145.466 465.376 145.18 465.36L142.914 465.36C142.627 465.353 142.371 465.54 142.29 465.816 142.208 466.082 142.289 466.372 142.498 466.558L143.25 467.26 144.24 468.171C144.327 468.269 144.395 468.383 144.438 468.507 144.486 468.624 144.486 468.756 144.438 468.873L143.774 471.219C143.682 471.496 143.787 471.801 144.032 471.961 144.266 472.128 144.58 472.128 144.814 471.961L146.793 470.556C147.033 470.398 147.344 470.398 147.584 470.556L149.564 471.961C149.797 472.128 150.111 472.128 150.345 471.961 150.583 471.796 150.684 471.494 150.593 471.219L149.89 468.864C149.809 468.609 149.891 468.331 150.098 468.161L151.919 466.597Z" stroke="#FFFFFF" stroke-width="0.989583" fill="#FF38B2"/><path d="M157.856 418.217C158.059 418.027 158.139 417.741 158.064 417.474 157.964 417.214 157.72 417.035 157.441 417.019L155.174 417.019C154.891 417.017 154.64 416.834 154.551 416.564L153.809 414.328C153.708 414.043 153.447 413.845 153.146 413.823 152.858 413.843 152.605 414.017 152.483 414.278L151.741 416.515C151.662 416.79 151.404 416.975 151.117 416.96L148.851 416.96C148.564 416.953 148.308 417.14 148.228 417.415 148.146 417.682 148.227 417.972 148.435 418.157L149.217 418.86 150.177 419.76C150.265 419.858 150.332 419.973 150.375 420.097 150.424 420.214 150.424 420.346 150.375 420.463L149.672 422.818C149.58 423.095 149.685 423.4 149.93 423.56 150.164 423.727 150.478 423.727 150.711 423.56L152.691 422.155C152.931 421.998 153.242 421.998 153.482 422.155L155.461 423.56C155.695 423.727 156.009 423.727 156.243 423.56 156.481 423.395 156.582 423.093 156.491 422.818L155.788 420.463C155.707 420.208 155.789 419.93 155.996 419.76L157.817 418.197Z" stroke="#FFFFFF" stroke-width="0.989583" fill="#FF38B2"/><path d="M165.021 448.458C165.021 449.551 164.135 450.438 163.042 450.438 161.949 450.438 161.062 449.551 161.062 448.458 161.062 447.365 161.949 446.479 163.042 446.479 164.135 446.479 165.021 447.365 165.021 448.458Z" stroke="#FFFFFF" stroke-width="0.989583" fill="#FF38B2"/></g></svg>