<svg width="95" height="95" xmlns="http://www.w3.org/2000/svg" xmlns:xlink="http://www.w3.org/1999/xlink" xml:space="preserve" overflow="hidden"><g transform="translate(-499 -397)"><path d="M543.739 403.927 543.739 403.927C547.564 416.136 555.694 425.762 566.005 430.291L566.005 430.291C555.694 434.819 547.564 444.442 543.739 456.654L543.739 456.654C539.913 444.446 531.784 434.819 521.473 430.291L521.473 430.291C531.784 425.762 539.913 416.136 543.739 403.927Z" stroke="#FFFFFF" stroke-width="0.989583" fill="#13501B"/><path d="M565.911 449.018 565.911 449.018C568.526 457.365 574.086 463.948 581.135 467.046L581.135 467.046C574.086 470.142 568.526 476.725 565.911 485.073L565.911 485.073C563.295 476.725 557.736 470.142 550.686 467.046L550.686 467.046C557.736 463.948 563.295 457.365 565.911 449.018Z" stroke="#FFFFFF" stroke-width="0.989583" fill="#13501B"/><path d="M523.617 449.553 523.617 449.553C525.058 454.638 528.62 458.857 533.391 461.131L533.391 461.131C528.621 463.404 525.06 467.62 523.617 472.703L523.617 472.703C522.176 467.618 518.615 463.399 513.844 461.125L513.844 461.125C518.614 458.852 522.174 454.635 523.617 449.552Z" stroke="#FFFFFF" stroke-width="0.989583" fill="#13501B"/></g></svg>