<svg width="94" height="94" xmlns="http://www.w3.org/2000/svg" xmlns:xlink="http://www.w3.org/1999/xlink" xml:space="preserve" overflow="hidden"><g transform="translate(-496 -34)"><path d="M544.958 68.075 532.621 48.8833C531.152 46.6312 528.117 45.9458 525.865 47.4146 525.767 47.5125 525.571 47.6104 525.473 47.7083 523.515 49.3729 523.123 52.2125 524.494 54.3667L535.852 72.0896 535.754 72.1875 521.36 59.0667C519.402 57.2063 516.269 57.4021 514.408 59.3604 514.31 59.4583 514.213 59.5563 514.115 59.7521 512.646 61.8083 512.94 64.7458 514.898 66.4104L530.956 81 530.858 81.0979 516.66 74.1458C514.408 72.9708 511.569 73.6562 510.1 75.8104 508.631 78.0625 509.317 81.0979 511.667 82.5667 511.765 82.6646 511.96 82.7625 512.058 82.7625L528.117 90.7917 528.215 90.9875C531.544 95.8833 540.552 108.515 548.581 107.829L557.002 121.146 576.292 109.004 568.654 96.8625C572.179 90.3021 572.375 82.5667 572.375 76.1042 572.375 70.9146 572.375 66.0188 574.431 63.9625 575.9 62.2979 575.802 59.7521 574.138 58.1854L574.138 58.1854C572.571 56.7167 570.025 56.7167 568.458 58.3812 568.458 58.3812 568.458 58.4792 568.36 58.4792 564.444 62.7875 562.192 70.1313 562.094 76.8875L562.094 77.1812C560.037 75.2229 558.079 73.1667 556.415 70.9146L548.19 46.2396C547.308 43.6937 544.567 42.3229 542.021 43.1063 541.825 43.2042 541.727 43.2042 541.531 43.3021 539.181 44.3792 538.104 47.1208 538.985 49.5687L545.154 67.9771 544.958 68.075Z" stroke="#FFFFFF" stroke-width="0.979167" fill="#C00000"/><path d="M561.115 46.6312C562.779 48.3937 564.052 50.3521 564.835 52.6042 565.227 53.6813 565.521 54.8562 565.717 55.9333L568.654 55.4437C568.458 54.0729 568.067 52.8 567.577 51.5271 566.108 47.7083 563.465 44.3792 560.135 41.9313 559.058 41.1479 557.785 40.4625 556.61 39.875L555.435 42.5187C557.59 43.5958 559.548 44.9667 561.115 46.6312Z" stroke="#FFFFFF" stroke-width="0.979167" fill="#C00000"/><path d="M557.002 50.5479C558.079 51.7229 558.96 53.0938 559.548 54.6604 559.842 55.4437 560.037 56.1292 560.135 56.9125L563.073 56.4229C562.877 55.4437 562.681 54.4646 562.29 53.5833 561.604 51.7229 560.527 49.9604 559.156 48.5896 557.785 47.1208 556.121 46.0438 554.358 45.1625L553.183 47.8063C554.554 48.4917 555.925 49.3729 557.002 50.5479Z" stroke="#FFFFFF" stroke-width="0.979167" fill="#C00000"/><path d="M520.969 104.5C519.304 102.737 518.129 100.779 517.248 98.5271 516.856 97.45 516.562 96.275 516.367 95.1L513.429 95.5896C513.919 98.3312 514.898 100.877 516.367 103.227 517.052 104.402 517.933 105.479 518.912 106.458 520.773 108.417 523.025 110.081 525.571 111.158L526.746 108.515C524.494 107.633 522.633 106.263 520.969 104.5Z" stroke="#FFFFFF" stroke-width="0.979167" fill="#C00000"/><path d="M525.081 100.583C524.004 99.4083 523.123 98.0375 522.535 96.4708 522.242 95.6875 522.046 95.0021 521.948 94.2188L519.01 94.7083C519.206 95.6875 519.402 96.6667 519.794 97.5479 520.479 99.4083 521.556 101.171 523.025 102.64 524.396 104.108 526.06 105.185 527.823 106.067L528.998 103.423C528.312 103.129 527.627 102.737 526.942 102.248 526.256 101.758 525.669 101.171 525.081 100.583Z" stroke="#FFFFFF" stroke-width="0.979167" fill="#C00000"/></g></svg>