<svg width="94" height="95" xmlns="http://www.w3.org/2000/svg" xmlns:xlink="http://www.w3.org/1999/xlink" xml:space="preserve" overflow="hidden"><g transform="translate(-926 -34)"><path d="M70.8917 18.6042C68.6396 21.7375 63.1562 25.4583 55.9104 28.3958 66.6813 33.7812 72.85 42.2021 76.4729 49.6438 71.2833 48.9583 64.3312 47.5875 55.225 45.0417 55.225 45.0417 50.0354 46.6083 48.4688 57.575 48.2729 58.9458 48.2729 59.8271 48.2729 59.8271 56.1063 65.2125 61.4917 69.6188 65.3104 73.1437 57.2812 75.1021 46.8042 75.7875 35.8375 70.8917 38.2854 78.3333 38.775 84.8937 37.7958 88.7125 62.7646 94.2938 73.2417 81.8583 73.2417 81.8583 73.2417 81.8583 81.4667 70.7938 80.1938 67.1708 77.55 65.6042 75.1021 64.0375 72.85 62.5688 75.4938 63.2542 78.1375 64.2333 81.075 65.3104 84.6979 63.9396 88.0271 50.6229 88.0271 50.6229 88.0271 50.6229 90.9646 34.2708 70.8917 18.6042ZM76.8646 68.7375C74.9062 69.7167 72.2625 70.8917 69.0312 71.9688 64.9188 67.9542 59.6313 63.7438 53.4625 59.3375 56.2042 59.3375 60.1208 59.5333 65.0167 60.5125 68.0521 63.0583 72.0667 65.8979 76.8646 68.7375ZM84.7958 49.4479 84.5021 50.4271C83.3271 50.4271 81.9562 50.3292 80.1938 50.2313 77.1583 43.1812 71.8708 34.9563 62.8625 28.7875 66.1917 27.025 69.0312 25.0667 71.1854 23.1083 85.8729 35.7396 85.0896 47.6854 84.7958 49.4479Z" stroke="#FFFFFF" stroke-width="0.979167" fill="#FFC000" transform="matrix(1 0 0 1.01064 926 34)"/><path d="M44.2583 27.4167C37.8938 23.9896 28.4938 22.0312 20.5625 20.9542 25.6542 15.6667 31.5292 10.8688 36.3271 10.7708 30.2563 5.18958 21.6396 3.91667 21.6396 3.91667 13.0229 7.24583 5.97292 19.5833 5.97292 19.5833 4.89583 27.8083 8.91042 35.25 8.91042 35.25 11.1625 34.7604 13.4146 34.5646 15.7646 34.5646 19.8771 34.5646 23.8917 35.25 27.6125 36.1313 22.0312 40.5375 16.6458 46.9021 13.8063 55.8125 13.9042 55.4208 26.5354 59.7292 26.5354 59.7292 26.5354 59.7292 31.3333 46.9021 43.1812 42.1042 43.1812 42.1042 47.5875 32.7042 44.2583 27.4167ZM15.7646 30.6479C14.5896 30.6479 13.3167 30.7458 12.2396 30.8438 13.6104 28.9833 15.3729 26.8292 17.4292 24.5771 26.4375 25.6542 33.7812 27.3188 39.1667 29.375 37.1104 30.2563 34.5646 31.5292 31.8229 33.2917 26.9271 31.8229 21.3458 30.6479 15.7646 30.6479Z" stroke="#FFFFFF" stroke-width="0.979167" fill="#FFC000" transform="matrix(1 0 0 1.01064 926 34)"/><path d="M62.7646 4.89583 52.0917 8.91042 48.0771 19.5833 58.75 15.5688Z" stroke="#FFFFFF" stroke-width="0.979167" fill="#FFC000" transform="matrix(1 0 0 1.01064 926 34)"/><path d="M8.91042 68.5417 12.925 79.2146 23.5979 83.2292 19.5833 72.5563Z" stroke="#FFFFFF" stroke-width="0.979167" fill="#FFC000" transform="matrix(1 0 0 1.01064 926 34)"/></g></svg>